# xmcd CD database file
#
# Track frame offsets:
#	150
#	25237
#	41875
#
# Disc length: 889 seconds
#
# Revision: 0
# Processed by: cddbd v1.5PL3 Copyright (c) Steve Scherf et al.
# Submitted via: CDex 1.50beta9
#
DISCID=20037703
DTITLE=織田　裕二 - ＯＶＥＲ　ＴＨＥ　ＴＲＯＵＢＬＥ
DYEAR=1994
DGENRE=J-POP
TTITLE0=ＯＶＥＲ　ＴＨＥ　ＴＲＯＵＢＬＥ
TTITLE1=ひたすらな君だった
TTITLE2=ＯＶＥＲ　ＴＨＥ　ＴＲＯＵＢＬＥ　カラオケ
EXTD=YEAR: 1994
EXTT0=
EXTT1=
EXTT2=
PLAYORDER=
